<svg xmlns="http://www.w3.org/2000/svg" viewBox="0 0 1600 400" role="img" aria-labelledby="title desc">
  <title id="title">Johann Tafur — Neon systems</title>
  <desc id="desc">Panoramic cyberpunk developer banner with neon city, code fragments and transit lines.</desc>
  <defs>
    <linearGradient id="bg" x1="0" x2="1" y1="0" y2="1"><stop stop-color="#080014"/><stop offset=".45" stop-color="#180042"/><stop offset="1" stop-color="#001d38"/></linearGradient>
    <linearGradient id="glow" x1="0" x2="1"><stop stop-color="#ff00c8"/><stop offset=".48" stop-color="#00e5ff"/><stop offset="1" stop-color="#b8ff00"/></linearGradient>
    <filter id="blur"><feGaussianBlur stdDeviation="10"/></filter>
    <pattern id="dots" width="18" height="18" patternUnits="userSpaceOnUse"><circle cx="3" cy="3" r="2.2" fill="#ff00c8" opacity=".35"/></pattern>
  </defs>
  <rect width="1600" height="400" fill="url(#bg)"/>
  <rect x="0" y="0" width="470" height="400" fill="url(#dots)" opacity=".7"/>
  <g filter="url(#blur)" opacity=".6"><path d="M-80 333 C300 90 560 455 950 150 S1380 155 1710 10" stroke="#ff00c8" stroke-width="18" fill="none"/><path d="M-20 365 C320 162 600 450 1000 210 S1390 250 1660 55" stroke="#00e5ff" stroke-width="12" fill="none"/></g>
  <g fill="none" stroke="url(#glow)" stroke-width="3" opacity=".8"><path d="M0 336 C310 90 550 434 950 150 S1380 155 1600 25"/><path d="M0 368 C335 162 610 450 1000 210 S1390 250 1600 70"/></g>
  <g opacity=".85"><path d="M0 70 L225 0 L335 0 L75 160 Z" fill="#ff00c8"/><path d="M1200 0 L1540 0 L1600 68 L1360 136 Z" fill="#00e5ff"/><path d="M1375 290 L1600 203 L1600 400 L1460 400 Z" fill="#b8ff00"/></g>
  <g stroke="#00e5ff" stroke-width="2" fill="#090014" opacity=".95"><rect x="120" y="133" width="300" height="132"/><rect x="165" y="158" width="210" height="15"/><rect x="165" y="190" width="168" height="8"/><rect x="165" y="210" width="190" height="8"/><rect x="165" y="230" width="128" height="8"/></g>
  <g fill="#b8ff00"><rect x="165" y="190" width="92" height="8"/><rect x="165" y="230" width="62" height="8"/></g>
  <g fill="#ff00c8" opacity=".9"><rect x="500" y="270" width="46" height="92"/><rect x="558" y="225" width="58" height="137"/><rect x="632" y="245" width="40" height="117"/><rect x="1110" y="214" width="52" height="148"/><rect x="1175" y="262" width="70" height="100"/><rect x="1262" y="198" width="43" height="164"/></g>
  <g fill="#00e5ff" opacity=".85"><rect x="692" y="242" width="30" height="120"/><rect x="1038" y="253" width="48" height="109"/><rect x="1328" y="248" width="34" height="114"/></g>
  <path d="M780 367 L838 246 L896 367 Z" fill="#090014" stroke="#b8ff00" stroke-width="4"/><circle cx="838" cy="216" r="30" fill="#090014" stroke="#ff00c8" stroke-width="5"/><path d="M805 260 Q838 225 872 260 L900 360 L776 360 Z" fill="#090014" stroke="#00e5ff" stroke-width="4"/>
  <text x="800" y="82" text-anchor="middle" fill="#f8f5ff" font-family="Arial, Helvetica, sans-serif" font-size="50" font-weight="900" letter-spacing="11">JOHANN TAFUR</text>
  <text x="800" y="118" text-anchor="middle" fill="#00e5ff" font-family="monospace" font-size="17" letter-spacing="4">NEON SYSTEMS // CODE IN MOTION</text>
  <g fill="#f8f5ff" opacity=".8"><circle cx="80" cy="300" r="4"/><circle cx="102" cy="300" r="4"/><circle cx="124" cy="300" r="4"/><circle cx="1470" cy="125" r="4"/><circle cx="1492" cy="125" r="4"/><circle cx="1514" cy="125" r="4"/></g>
</svg>